<svg xmlns="http://www.w3.org/2000/svg" xmlns:xlink="http://www.w3.org/1999/xlink" width="500" zoomAndPan="magnify" viewBox="0 0 375 374.999991" height="500" preserveAspectRatio="xMidYMid meet" version="1.0"><defs><g/><clipPath id="id1"><path d="M 5.515625 5.332031 L 369.265625 5.332031 L 369.265625 342.832031 L 5.515625 342.832031 Z M 5.515625 5.332031 " clip-rule="nonzero"/></clipPath><clipPath id="id2"><path d="M 5.515625 83 L 369.265625 83 L 369.265625 110 L 5.515625 110 Z M 5.515625 83 " clip-rule="nonzero"/></clipPath></defs><path fill="#7ed957" d="M 118.203125 251.964844 C 116.484375 251.964844 114.828125 251.636719 113.238281 250.976562 C 111.648438 250.320312 110.246094 249.378906 109.03125 248.164062 L 74.433594 213.554688 C 73.828125 212.953125 73.289062 212.296875 72.816406 211.589844 C 72.34375 210.878906 71.941406 210.132812 71.617188 209.34375 C 71.289062 208.554688 71.042969 207.742188 70.875 206.90625 C 70.710938 206.070312 70.625 205.226562 70.625 204.371094 C 70.625 203.519531 70.710938 202.675781 70.875 201.839844 C 71.042969 201 71.289062 200.191406 71.617188 199.402344 C 71.941406 198.613281 72.34375 197.863281 72.816406 197.15625 C 73.289062 196.445312 73.828125 195.792969 74.433594 195.1875 L 109.03125 160.570312 C 109.632812 159.964844 110.289062 159.425781 110.996094 158.953125 C 111.707031 158.480469 112.453125 158.078125 113.242188 157.753906 C 114.03125 157.425781 114.839844 157.179688 115.675781 157.011719 C 116.511719 156.847656 117.359375 156.761719 118.210938 156.761719 C 119.0625 156.761719 119.90625 156.847656 120.742188 157.011719 C 121.578125 157.179688 122.390625 157.425781 123.175781 157.753906 C 123.964844 158.078125 124.714844 158.480469 125.421875 158.953125 C 126.128906 159.425781 126.785156 159.964844 127.386719 160.570312 C 127.992188 161.171875 128.527344 161.828125 129 162.539062 C 129.476562 163.246094 129.875 163.996094 130.199219 164.785156 C 130.527344 165.570312 130.773438 166.382812 130.9375 167.222656 C 131.105469 168.058594 131.1875 168.902344 131.1875 169.753906 C 131.183594 170.609375 131.101562 171.453125 130.933594 172.289062 C 130.765625 173.125 130.519531 173.9375 130.195312 174.726562 C 129.867188 175.511719 129.464844 176.261719 128.992188 176.96875 C 128.519531 177.679688 127.980469 178.335938 127.375 178.9375 L 101.949219 204.367188 L 127.375 229.808594 C 128.28125 230.714844 129.039062 231.734375 129.644531 232.867188 C 130.246094 234 130.675781 235.195312 130.925781 236.453125 C 131.175781 237.710938 131.238281 238.980469 131.113281 240.257812 C 130.984375 241.535156 130.675781 242.765625 130.1875 243.953125 C 129.695312 245.140625 129.042969 246.226562 128.230469 247.21875 C 127.414062 248.210938 126.476562 249.066406 125.410156 249.777344 C 124.339844 250.492188 123.195312 251.035156 121.96875 251.40625 C 120.742188 251.78125 119.484375 251.964844 118.203125 251.964844 Z M 118.203125 251.964844 " fill-opacity="1" fill-rule="nonzero"/><path fill="#7ed957" d="M 256.574219 251.964844 C 255.292969 251.964844 254.039062 251.78125 252.8125 251.40625 C 251.582031 251.035156 250.4375 250.492188 249.371094 249.777344 C 248.304688 249.066406 247.363281 248.210938 246.550781 247.21875 C 245.734375 246.226562 245.082031 245.136719 244.59375 243.953125 C 244.101562 242.765625 243.792969 241.535156 243.667969 240.257812 C 243.542969 238.980469 243.605469 237.710938 243.855469 236.453125 C 244.105469 235.195312 244.53125 234 245.136719 232.867188 C 245.742188 231.734375 246.496094 230.714844 247.402344 229.808594 L 272.832031 204.367188 L 247.402344 178.9375 C 246.800781 178.335938 246.261719 177.679688 245.789062 176.96875 C 245.316406 176.261719 244.914062 175.511719 244.589844 174.726562 C 244.261719 173.9375 244.015625 173.125 243.851562 172.289062 C 243.683594 171.453125 243.601562 170.609375 243.601562 169.757812 C 243.601562 168.90625 243.683594 168.058594 243.847656 167.222656 C 244.015625 166.386719 244.261719 165.574219 244.585938 164.789062 C 244.910156 164 245.3125 163.253906 245.785156 162.542969 C 246.257812 161.835938 246.796875 161.179688 247.398438 160.574219 C 248 159.972656 248.65625 159.433594 249.363281 158.960938 C 250.070312 158.484375 250.820312 158.085938 251.605469 157.757812 C 252.394531 157.433594 253.203125 157.1875 254.039062 157.019531 C 254.875 156.851562 255.71875 156.769531 256.570312 156.769531 C 257.421875 156.769531 258.265625 156.851562 259.101562 157.019531 C 259.9375 157.183594 260.75 157.429688 261.539062 157.753906 C 262.324219 158.082031 263.074219 158.480469 263.78125 158.953125 C 264.488281 159.429688 265.144531 159.964844 265.75 160.570312 L 300.347656 195.1875 C 300.949219 195.792969 301.488281 196.445312 301.964844 197.15625 C 302.4375 197.863281 302.835938 198.613281 303.164062 199.402344 C 303.488281 200.191406 303.738281 201 303.902344 201.839844 C 304.070312 202.675781 304.152344 203.519531 304.152344 204.371094 C 304.152344 205.226562 304.070312 206.070312 303.902344 206.90625 C 303.738281 207.742188 303.488281 208.554688 303.164062 209.34375 C 302.835938 210.132812 302.4375 210.878906 301.964844 211.589844 C 301.488281 212.296875 300.949219 212.953125 300.347656 213.554688 L 265.75 248.164062 C 264.53125 249.378906 263.128906 250.320312 261.539062 250.976562 C 259.949219 251.636719 258.296875 251.964844 256.574219 251.964844 Z M 256.574219 251.964844 " fill-opacity="1" fill-rule="nonzero"/><path fill="#7ed957" d="M 170.082031 251.964844 C 169.53125 251.964844 168.984375 251.929688 168.4375 251.859375 C 167.894531 251.789062 167.355469 251.6875 166.820312 251.546875 C 166.289062 251.410156 165.765625 251.238281 165.257812 251.03125 C 164.746094 250.828125 164.25 250.589844 163.769531 250.320312 C 163.289062 250.054688 162.828125 249.753906 162.382812 249.429688 C 161.941406 249.101562 161.519531 248.746094 161.125 248.367188 C 160.726562 247.984375 160.351562 247.582031 160.007812 247.152344 C 159.660156 246.726562 159.34375 246.277344 159.054688 245.808594 C 158.765625 245.339844 158.507812 244.855469 158.277344 244.355469 C 158.050781 243.851562 157.855469 243.339844 157.695312 242.8125 C 157.53125 242.285156 157.402344 241.75 157.308594 241.207031 C 157.214844 240.667969 157.15625 240.121094 157.128906 239.570312 C 157.105469 239.019531 157.117188 238.46875 157.160156 237.921875 C 157.207031 237.371094 157.285156 236.828125 157.398438 236.289062 C 157.515625 235.75 157.664062 235.222656 157.84375 234.703125 C 158.027344 234.183594 158.238281 233.675781 158.484375 233.183594 L 193.070312 163.945312 C 193.457031 163.179688 193.910156 162.460938 194.433594 161.789062 C 194.957031 161.117188 195.542969 160.5 196.191406 159.941406 C 196.835938 159.382812 197.53125 158.894531 198.273438 158.472656 C 199.015625 158.050781 199.789062 157.707031 200.601562 157.441406 C 201.410156 157.171875 202.238281 156.984375 203.085938 156.878906 C 203.933594 156.773438 204.78125 156.753906 205.632812 156.816406 C 206.484375 156.878906 207.320312 157.023438 208.144531 157.25 C 208.964844 157.476562 209.757812 157.785156 210.519531 158.167969 C 211.285156 158.550781 212 159.003906 212.675781 159.53125 C 213.347656 160.054688 213.960938 160.640625 214.519531 161.285156 C 215.078125 161.933594 215.566406 162.628906 215.988281 163.371094 C 216.410156 164.113281 216.753906 164.890625 217.019531 165.699219 C 217.289062 166.511719 217.476562 167.339844 217.582031 168.1875 C 217.683594 169.035156 217.707031 169.882812 217.644531 170.734375 C 217.582031 171.585938 217.4375 172.425781 217.210938 173.246094 C 216.984375 174.070312 216.675781 174.863281 216.292969 175.625 L 181.707031 244.851562 C 181.164062 245.925781 180.484375 246.90625 179.667969 247.789062 C 178.851562 248.675781 177.929688 249.429688 176.902344 250.058594 C 175.878906 250.6875 174.785156 251.164062 173.625 251.488281 C 172.46875 251.8125 171.285156 251.972656 170.082031 251.964844 Z M 170.082031 251.964844 " fill-opacity="1" fill-rule="nonzero"/><g clip-path="url(#id1)"><path fill="#7ed957" d="M 356.042969 342.832031 L 18.738281 342.832031 C 17.886719 342.832031 17.042969 342.75 16.207031 342.582031 C 15.371094 342.414062 14.558594 342.167969 13.773438 341.84375 C 12.984375 341.515625 12.238281 341.117188 11.53125 340.644531 C 10.820312 340.171875 10.167969 339.632812 9.5625 339.03125 C 8.960938 338.425781 8.425781 337.769531 7.949219 337.0625 C 7.476562 336.355469 7.078125 335.605469 6.75 334.820312 C 6.425781 334.03125 6.179688 333.21875 6.011719 332.382812 C 5.847656 331.546875 5.765625 330.703125 5.765625 329.851562 L 5.765625 18.3125 C 5.765625 17.460938 5.847656 16.617188 6.011719 15.78125 C 6.179688 14.945312 6.425781 14.132812 6.75 13.34375 C 7.078125 12.558594 7.476562 11.808594 7.949219 11.101562 C 8.425781 10.390625 8.960938 9.738281 9.5625 9.132812 C 10.167969 8.53125 10.820312 7.992188 11.53125 7.519531 C 12.238281 7.046875 12.984375 6.644531 13.773438 6.320312 C 14.558594 5.992188 15.371094 5.746094 16.207031 5.582031 C 17.042969 5.414062 17.886719 5.332031 18.738281 5.332031 L 356.042969 5.332031 C 356.894531 5.332031 357.738281 5.414062 358.574219 5.582031 C 359.410156 5.746094 360.21875 5.992188 361.007812 6.320312 C 361.792969 6.644531 362.542969 7.046875 363.25 7.519531 C 363.957031 7.992188 364.613281 8.53125 365.214844 9.132812 C 365.816406 9.738281 366.355469 10.390625 366.828125 11.101562 C 367.300781 11.808594 367.703125 12.558594 368.027344 13.34375 C 368.355469 14.132812 368.601562 14.945312 368.765625 15.78125 C 368.933594 16.617188 369.015625 17.460938 369.015625 18.3125 L 369.015625 329.851562 C 369.015625 330.703125 368.933594 331.546875 368.765625 332.382812 C 368.601562 333.21875 368.355469 334.03125 368.027344 334.820312 C 367.703125 335.605469 367.300781 336.355469 366.828125 337.0625 C 366.355469 337.769531 365.816406 338.425781 365.214844 339.03125 C 364.613281 339.632812 363.957031 340.171875 363.25 340.644531 C 362.542969 341.117188 361.792969 341.515625 361.007812 341.84375 C 360.21875 342.167969 359.410156 342.414062 358.574219 342.582031 C 357.738281 342.75 356.894531 342.832031 356.042969 342.832031 Z M 31.710938 316.871094 L 343.070312 316.871094 L 343.070312 31.292969 L 31.710938 31.292969 Z M 31.710938 316.871094 " fill-opacity="1" fill-rule="nonzero"/></g><g clip-path="url(#id2)"><path fill="#7ed957" d="M 356.042969 109.179688 L 18.738281 109.179688 C 17.886719 109.179688 17.042969 109.09375 16.207031 108.929688 C 15.371094 108.761719 14.558594 108.515625 13.773438 108.191406 C 12.984375 107.863281 12.238281 107.464844 11.53125 106.992188 C 10.820312 106.515625 10.167969 105.980469 9.5625 105.375 C 8.960938 104.773438 8.425781 104.117188 7.949219 103.410156 C 7.476562 102.699219 7.078125 101.953125 6.75 101.164062 C 6.425781 100.378906 6.179688 99.566406 6.011719 98.730469 C 5.847656 97.894531 5.765625 97.050781 5.765625 96.195312 C 5.765625 95.34375 5.847656 94.5 6.011719 93.664062 C 6.179688 92.828125 6.425781 92.015625 6.75 91.230469 C 7.078125 90.441406 7.476562 89.695312 7.949219 88.984375 C 8.425781 88.277344 8.960938 87.621094 9.5625 87.019531 C 10.167969 86.414062 10.820312 85.878906 11.53125 85.402344 C 12.238281 84.929688 12.984375 84.53125 13.773438 84.203125 C 14.558594 83.878906 15.371094 83.632812 16.207031 83.464844 C 17.042969 83.300781 17.886719 83.214844 18.738281 83.214844 L 356.042969 83.214844 C 356.894531 83.214844 357.738281 83.300781 358.574219 83.464844 C 359.410156 83.632812 360.21875 83.878906 361.007812 84.203125 C 361.792969 84.53125 362.542969 84.929688 363.25 85.402344 C 363.957031 85.878906 364.613281 86.414062 365.214844 87.019531 C 365.816406 87.621094 366.355469 88.277344 366.828125 88.984375 C 367.300781 89.695312 367.703125 90.441406 368.027344 91.230469 C 368.355469 92.015625 368.601562 92.828125 368.765625 93.664062 C 368.933594 94.5 369.015625 95.34375 369.015625 96.195312 C 369.015625 97.050781 368.933594 97.894531 368.765625 98.730469 C 368.601562 99.566406 368.355469 100.378906 368.027344 101.164062 C 367.703125 101.953125 367.300781 102.699219 366.828125 103.410156 C 366.355469 104.117188 365.816406 104.773438 365.214844 105.375 C 364.613281 105.980469 363.957031 106.515625 363.25 106.992188 C 362.542969 107.464844 361.792969 107.863281 361.007812 108.191406 C 360.21875 108.515625 359.410156 108.761719 358.574219 108.929688 C 357.738281 109.09375 356.894531 109.179688 356.042969 109.179688 Z M 356.042969 109.179688 " fill-opacity="1" fill-rule="nonzero"/></g><path fill="#7ed957" d="M 239.28125 70.234375 C 238.410156 70.207031 237.546875 70.121094 236.6875 69.976562 C 235.871094 69.832031 235.09375 69.574219 234.351562 69.195312 C 233.519531 68.910156 232.738281 68.519531 232.003906 68.027344 L 230.070312 66.472656 C 229.472656 65.863281 228.941406 65.199219 228.472656 64.488281 C 228.003906 63.773438 227.609375 63.023438 227.285156 62.234375 C 226.964844 61.441406 226.71875 60.628906 226.554688 59.792969 C 226.390625 58.953125 226.308594 58.109375 226.308594 57.253906 C 226.308594 56.402344 226.390625 55.554688 226.554688 54.71875 C 226.71875 53.882812 226.964844 53.066406 227.285156 52.277344 C 227.609375 51.488281 228.003906 50.734375 228.472656 50.023438 C 228.941406 49.308594 229.472656 48.648438 230.070312 48.039062 C 230.992188 47.148438 232.019531 46.410156 233.152344 45.820312 C 234.289062 45.234375 235.480469 44.816406 236.738281 44.574219 C 237.992188 44.332031 239.257812 44.273438 240.527344 44.398438 C 241.800781 44.527344 243.027344 44.828125 244.210938 45.3125 C 245.015625 45.574219 245.75 45.964844 246.417969 46.480469 C 247.183594 47 247.84375 47.519531 248.492188 48.039062 C 249.089844 48.648438 249.625 49.308594 250.09375 50.023438 C 250.5625 50.734375 250.957031 51.488281 251.28125 52.277344 C 251.601562 53.066406 251.84375 53.882812 252.011719 54.71875 C 252.175781 55.554688 252.257812 56.402344 252.257812 57.253906 C 252.257812 58.109375 252.175781 58.953125 252.011719 59.792969 C 251.84375 60.628906 251.601562 61.441406 251.28125 62.234375 C 250.957031 63.023438 250.5625 63.773438 250.09375 64.488281 C 249.625 65.199219 249.089844 65.863281 248.492188 66.472656 C 247.222656 67.621094 245.792969 68.53125 244.210938 69.195312 C 242.636719 69.867188 240.996094 70.214844 239.28125 70.234375 Z M 239.28125 70.234375 " fill-opacity="1" fill-rule="nonzero"/><path fill="#7ed957" d="M 278.203125 70.234375 C 277.332031 70.207031 276.464844 70.121094 275.609375 69.976562 C 274.789062 69.832031 274.011719 69.574219 273.273438 69.195312 C 272.4375 68.910156 271.65625 68.519531 270.925781 68.027344 C 270.25 67.546875 269.605469 67.027344 268.992188 66.472656 C 267.777344 65.238281 266.871094 63.808594 266.265625 62.1875 C 265.574219 60.617188 265.230469 58.972656 265.230469 57.253906 C 265.230469 55.539062 265.574219 53.894531 266.265625 52.320312 C 266.929688 50.738281 267.839844 49.308594 268.992188 48.039062 C 269.898438 47.125 270.917969 46.359375 272.054688 45.75 C 273.1875 45.136719 274.386719 44.707031 275.652344 44.453125 C 276.914062 44.199219 278.1875 44.132812 279.46875 44.261719 C 280.75 44.386719 281.988281 44.695312 283.175781 45.191406 C 284.367188 45.683594 285.460938 46.34375 286.453125 47.164062 C 287.449219 47.980469 288.300781 48.929688 289.011719 50.003906 C 289.726562 51.078125 290.265625 52.234375 290.632812 53.46875 C 291.003906 54.703125 291.183594 55.964844 291.175781 57.253906 C 291.152344 58.972656 290.8125 60.628906 290.164062 62.21875 C 289.515625 63.808594 288.597656 65.226562 287.414062 66.472656 C 286.792969 67.027344 286.144531 67.546875 285.46875 68.027344 C 284.738281 68.519531 283.960938 68.910156 283.132812 69.195312 C 282.390625 69.574219 281.613281 69.832031 280.796875 69.976562 C 279.9375 70.125 279.074219 70.210938 278.203125 70.234375 Z M 278.203125 70.234375 " fill-opacity="1" fill-rule="nonzero"/><path fill="#7ed957" d="M 317.121094 70.234375 C 316.269531 70.246094 315.421875 70.167969 314.582031 70.007812 C 313.742188 69.847656 312.929688 69.605469 312.136719 69.28125 C 311.347656 68.960938 310.59375 68.5625 309.882812 68.089844 C 309.171875 67.617188 308.515625 67.078125 307.910156 66.472656 C 307.304688 65.867188 306.765625 65.210938 306.292969 64.496094 C 305.820312 63.785156 305.425781 63.035156 305.101562 62.242188 C 304.777344 61.453125 304.535156 60.636719 304.375 59.796875 C 304.214844 58.957031 304.140625 58.109375 304.148438 57.253906 C 304.101562 55.527344 304.449219 53.882812 305.1875 52.320312 C 305.851562 50.738281 306.757812 49.308594 307.910156 48.039062 C 308.53125 47.464844 309.203125 46.953125 309.917969 46.503906 C 310.636719 46.054688 311.390625 45.675781 312.175781 45.367188 C 312.964844 45.0625 313.773438 44.828125 314.605469 44.671875 C 315.4375 44.515625 316.277344 44.4375 317.121094 44.4375 C 317.96875 44.4375 318.808594 44.515625 319.636719 44.671875 C 320.46875 44.828125 321.277344 45.0625 322.066406 45.367188 C 322.855469 45.675781 323.605469 46.054688 324.324219 46.503906 C 325.042969 46.953125 325.710938 47.464844 326.332031 48.039062 C 327.488281 49.308594 328.394531 50.738281 329.058594 52.320312 C 329.730469 53.898438 330.074219 55.542969 330.09375 57.253906 C 330.105469 58.109375 330.027344 58.957031 329.867188 59.796875 C 329.707031 60.636719 329.464844 61.453125 329.144531 62.242188 C 328.820312 63.035156 328.421875 63.785156 327.949219 64.496094 C 327.476562 65.210938 326.9375 65.867188 326.335938 66.472656 C 325.730469 67.078125 325.074219 67.617188 324.359375 68.089844 C 323.648438 68.5625 322.898438 68.960938 322.105469 69.28125 C 321.316406 69.605469 320.5 69.847656 319.664062 70.007812 C 318.824219 70.167969 317.976562 70.246094 317.121094 70.234375 Z M 317.121094 70.234375 " fill-opacity="1" fill-rule="nonzero"/><g fill="#7ed957" fill-opacity="1"><g transform="translate(69.196408, 361.475748)"><g><path d="M 8.6875 -4.734375 C 8.6875 -3.203125 8.269531 -2.03125 7.4375 -1.21875 C 6.601562 -0.40625 5.40625 0 3.84375 0 L 1.28125 0 L 1.28125 -9.28125 L 4.125 -9.28125 C 5.5625 -9.28125 6.679688 -8.878906 7.484375 -8.078125 C 8.285156 -7.273438 8.6875 -6.160156 8.6875 -4.734375 Z M 7.546875 -4.6875 C 7.546875 -5.894531 7.238281 -6.804688 6.625 -7.421875 C 6.019531 -8.035156 5.117188 -8.34375 3.921875 -8.34375 L 2.359375 -8.34375 L 2.359375 -0.9375 L 3.671875 -0.9375 C 4.953125 -0.9375 5.914062 -1.25 6.5625 -1.875 C 7.21875 -2.507812 7.546875 -3.445312 7.546875 -4.6875 Z M 7.546875 -4.6875 "/></g></g></g><g fill="#7ed957" fill-opacity="1"><g transform="translate(89.070775, 361.475748)"><g><path d="M 6.453125 0 L 1.28125 0 L 1.28125 -9.28125 L 6.453125 -9.28125 L 6.453125 -8.328125 L 2.359375 -8.328125 L 2.359375 -5.328125 L 6.203125 -5.328125 L 6.203125 -4.375 L 2.359375 -4.375 L 2.359375 -0.96875 L 6.453125 -0.96875 Z M 6.453125 0 "/></g></g></g><g fill="#7ed957" fill-opacity="1"><g transform="translate(106.698746, 361.475748)"><g><path d="M 6.578125 -9.28125 L 7.734375 -9.28125 L 4.390625 0 L 3.328125 0 L 0 -9.28125 L 1.140625 -9.28125 L 3.28125 -3.28125 C 3.519531 -2.582031 3.710938 -1.910156 3.859375 -1.265625 C 4.015625 -1.953125 4.210938 -2.632812 4.453125 -3.3125 Z M 6.578125 -9.28125 "/></g></g></g><g fill="#7ed957" fill-opacity="1"><g transform="translate(124.834374, 361.475748)"><g/></g></g><g fill="#7ed957" fill-opacity="1"><g transform="translate(138.610474, 361.475748)"><g><path d="M 6.453125 0 L 1.28125 0 L 1.28125 -9.28125 L 6.453125 -9.28125 L 6.453125 -8.328125 L 2.359375 -8.328125 L 2.359375 -5.328125 L 6.203125 -5.328125 L 6.203125 -4.375 L 2.359375 -4.375 L 2.359375 -0.96875 L 6.453125 -0.96875 Z M 6.453125 0 "/></g></g></g><g fill="#7ed957" fill-opacity="1"><g transform="translate(156.238448, 361.475748)"><g><path d="M 8.6875 -4.734375 C 8.6875 -3.203125 8.269531 -2.03125 7.4375 -1.21875 C 6.601562 -0.40625 5.40625 0 3.84375 0 L 1.28125 0 L 1.28125 -9.28125 L 4.125 -9.28125 C 5.5625 -9.28125 6.679688 -8.878906 7.484375 -8.078125 C 8.285156 -7.273438 8.6875 -6.160156 8.6875 -4.734375 Z M 7.546875 -4.6875 C 7.546875 -5.894531 7.238281 -6.804688 6.625 -7.421875 C 6.019531 -8.035156 5.117188 -8.34375 3.921875 -8.34375 L 2.359375 -8.34375 L 2.359375 -0.9375 L 3.671875 -0.9375 C 4.953125 -0.9375 5.914062 -1.25 6.5625 -1.875 C 7.21875 -2.507812 7.546875 -3.445312 7.546875 -4.6875 Z M 7.546875 -4.6875 "/></g></g></g><g fill="#7ed957" fill-opacity="1"><g transform="translate(176.112818, 361.475748)"><g><path d="M 8.28125 -9.28125 L 8.28125 -3.28125 C 8.28125 -2.21875 7.957031 -1.382812 7.3125 -0.78125 C 6.675781 -0.175781 5.800781 0.125 4.6875 0.125 C 3.570312 0.125 2.707031 -0.175781 2.09375 -0.78125 C 1.488281 -1.394531 1.1875 -2.234375 1.1875 -3.296875 L 1.1875 -9.28125 L 2.265625 -9.28125 L 2.265625 -3.21875 C 2.265625 -2.445312 2.472656 -1.851562 2.890625 -1.4375 C 3.316406 -1.019531 3.941406 -0.8125 4.765625 -0.8125 C 5.546875 -0.8125 6.144531 -1.019531 6.5625 -1.4375 C 6.988281 -1.851562 7.203125 -2.453125 7.203125 -3.234375 L 7.203125 -9.28125 Z M 8.28125 -9.28125 "/></g></g></g><g fill="#7ed957" fill-opacity="1"><g transform="translate(195.974496, 361.475748)"><g><path d="M 5.25 -8.453125 C 4.226562 -8.453125 3.421875 -8.109375 2.828125 -7.421875 C 2.242188 -6.742188 1.953125 -5.816406 1.953125 -4.640625 C 1.953125 -3.421875 2.234375 -2.476562 2.796875 -1.8125 C 3.367188 -1.15625 4.179688 -0.828125 5.234375 -0.828125 C 5.878906 -0.828125 6.617188 -0.945312 7.453125 -1.1875 L 7.453125 -0.234375 C 6.804688 0.00390625 6.015625 0.125 5.078125 0.125 C 3.703125 0.125 2.644531 -0.285156 1.90625 -1.109375 C 1.164062 -1.941406 0.796875 -3.125 0.796875 -4.65625 C 0.796875 -5.613281 0.972656 -6.453125 1.328125 -7.171875 C 1.679688 -7.890625 2.195312 -8.441406 2.875 -8.828125 C 3.550781 -9.210938 4.347656 -9.40625 5.265625 -9.40625 C 6.234375 -9.40625 7.082031 -9.226562 7.8125 -8.875 L 7.359375 -7.953125 C 6.648438 -8.285156 5.945312 -8.453125 5.25 -8.453125 Z M 5.25 -8.453125 "/></g></g></g><g fill="#7ed957" fill-opacity="1"><g transform="translate(214.573363, 361.475748)"><g><path d="M 7.109375 0 L 5.953125 -2.953125 L 2.234375 -2.953125 L 1.09375 0 L 0 0 L 3.671875 -9.3125 L 4.578125 -9.3125 L 8.234375 0 Z M 5.625 -3.921875 L 4.53125 -6.796875 C 4.394531 -7.160156 4.253906 -7.609375 4.109375 -8.140625 C 4.015625 -7.734375 3.878906 -7.285156 3.703125 -6.796875 L 2.609375 -3.921875 Z M 5.625 -3.921875 "/></g></g></g><g fill="#7ed957" fill-opacity="1"><g transform="translate(233.197614, 361.475748)"><g><path d="M 4.125 0 L 3.046875 0 L 3.046875 -8.328125 L 0.109375 -8.328125 L 0.109375 -9.28125 L 7.078125 -9.28125 L 7.078125 -8.328125 L 4.125 -8.328125 Z M 4.125 0 "/></g></g></g><g fill="#7ed957" fill-opacity="1"><g transform="translate(250.787514, 361.475748)"><g><path d="M 1.28125 0 L 1.28125 -9.28125 L 2.359375 -9.28125 L 2.359375 0 Z M 1.28125 0 "/></g></g></g><g fill="#7ed957" fill-opacity="1"><g transform="translate(264.811103, 361.475748)"><g><path d="M 9.328125 -4.65625 C 9.328125 -3.164062 8.953125 -1.992188 8.203125 -1.140625 C 7.453125 -0.296875 6.410156 0.125 5.078125 0.125 C 3.703125 0.125 2.644531 -0.289062 1.90625 -1.125 C 1.164062 -1.957031 0.796875 -3.140625 0.796875 -4.671875 C 0.796875 -6.179688 1.164062 -7.347656 1.90625 -8.171875 C 2.65625 -9.003906 3.710938 -9.421875 5.078125 -9.421875 C 6.410156 -9.421875 7.453125 -9 8.203125 -8.15625 C 8.953125 -7.3125 9.328125 -6.144531 9.328125 -4.65625 Z M 1.9375 -4.65625 C 1.9375 -3.394531 2.203125 -2.4375 2.734375 -1.78125 C 3.273438 -1.132812 4.054688 -0.8125 5.078125 -0.8125 C 6.097656 -0.8125 6.867188 -1.132812 7.390625 -1.78125 C 7.921875 -2.4375 8.1875 -3.394531 8.1875 -4.65625 C 8.1875 -5.90625 7.925781 -6.851562 7.40625 -7.5 C 6.882812 -8.144531 6.109375 -8.46875 5.078125 -8.46875 C 4.054688 -8.46875 3.273438 -8.140625 2.734375 -7.484375 C 2.203125 -6.835938 1.9375 -5.894531 1.9375 -4.65625 Z M 1.9375 -4.65625 "/></g></g></g><g fill="#7ed957" fill-opacity="1"><g transform="translate(285.332739, 361.475748)"><g><path d="M 8.53125 0 L 7.296875 0 L 2.21875 -7.78125 L 2.171875 -7.78125 C 2.234375 -6.875 2.265625 -6.039062 2.265625 -5.28125 L 2.265625 0 L 1.28125 0 L 1.28125 -9.28125 L 2.5 -9.28125 L 7.546875 -1.53125 L 7.609375 -1.53125 C 7.597656 -1.632812 7.578125 -2 7.546875 -2.625 C 7.515625 -3.25 7.503906 -3.691406 7.515625 -3.953125 L 7.515625 -9.28125 L 8.53125 -9.28125 Z M 8.53125 0 "/></g></g></g></svg>