<svg xmlns="http://www.w3.org/2000/svg" xmlns:xlink="http://www.w3.org/1999/xlink" width="500" zoomAndPan="magnify" viewBox="0 0 375 374.999991" height="500" preserveAspectRatio="xMidYMid meet" version="1.0"><defs><g/><clipPath id="id1"><path d="M 11.105469 10.367188 L 363.605469 10.367188 L 363.605469 337.367188 L 11.105469 337.367188 Z M 11.105469 10.367188 " clip-rule="nonzero"/></clipPath><clipPath id="id2"><path d="M 11.105469 85 L 363.605469 85 L 363.605469 111 L 11.105469 111 Z M 11.105469 85 " clip-rule="nonzero"/></clipPath></defs><rect x="-37.5" width="450" fill="#ffffff" y="-37.499999" height="449.999989" fill-opacity="1"/><rect x="-37.5" width="450" fill="#7ed957" y="-37.499999" height="449.999989" fill-opacity="1"/><rect x="-37.5" width="450" fill="#ffffff" y="-37.499999" height="449.999989" fill-opacity="1"/><rect x="-37.5" width="450" fill="#7ed957" y="-37.499999" height="449.999989" fill-opacity="1"/><path fill="#ffffff" d="M 120.308594 249.328125 C 118.640625 249.328125 117.039062 249.007812 115.5 248.371094 C 113.957031 247.730469 112.597656 246.824219 111.421875 245.644531 L 77.890625 212.113281 C 77.308594 211.527344 76.785156 210.894531 76.324219 210.207031 C 75.867188 209.519531 75.480469 208.792969 75.164062 208.03125 C 74.847656 207.269531 74.609375 206.480469 74.445312 205.671875 C 74.285156 204.859375 74.203125 204.042969 74.203125 203.214844 C 74.203125 202.390625 74.285156 201.570312 74.445312 200.761719 C 74.609375 199.949219 74.847656 199.164062 75.164062 198.398438 C 75.480469 197.636719 75.867188 196.910156 76.324219 196.222656 C 76.785156 195.535156 77.308594 194.902344 77.890625 194.316406 L 111.421875 160.773438 C 112.003906 160.191406 112.640625 159.667969 113.328125 159.207031 C 114.011719 158.75 114.738281 158.363281 115.5 158.046875 C 116.265625 157.730469 117.050781 157.488281 117.859375 157.328125 C 118.671875 157.167969 119.488281 157.085938 120.316406 157.085938 C 121.140625 157.085938 121.960938 157.167969 122.769531 157.328125 C 123.578125 157.488281 124.367188 157.730469 125.128906 158.046875 C 125.890625 158.363281 126.617188 158.75 127.304688 159.207031 C 127.992188 159.667969 128.625 160.191406 129.210938 160.773438 C 129.792969 161.359375 130.316406 161.996094 130.773438 162.683594 C 131.230469 163.371094 131.621094 164.09375 131.933594 164.859375 C 132.25 165.621094 132.488281 166.410156 132.648438 167.21875 C 132.808594 168.03125 132.890625 168.847656 132.890625 169.675781 C 132.890625 170.5 132.808594 171.320312 132.644531 172.128906 C 132.484375 172.941406 132.246094 173.726562 131.929688 174.492188 C 131.613281 175.253906 131.222656 175.976562 130.765625 176.664062 C 130.304688 177.351562 129.78125 177.988281 129.199219 178.570312 L 104.554688 203.207031 L 129.199219 227.859375 C 130.074219 228.738281 130.808594 229.726562 131.394531 230.824219 C 131.980469 231.921875 132.394531 233.078125 132.636719 234.296875 C 132.878906 235.519531 132.941406 236.746094 132.816406 237.984375 C 132.695312 239.222656 132.398438 240.414062 131.921875 241.5625 C 131.445312 242.714844 130.8125 243.769531 130.023438 244.730469 C 129.234375 245.691406 128.324219 246.519531 127.289062 247.207031 C 126.257812 247.898438 125.144531 248.425781 123.957031 248.785156 C 122.769531 249.148438 121.550781 249.328125 120.308594 249.328125 Z M 120.308594 249.328125 " fill-opacity="1" fill-rule="nonzero"/><path fill="#ffffff" d="M 254.398438 249.328125 C 253.15625 249.328125 251.941406 249.148438 250.75 248.785156 C 249.5625 248.425781 248.449219 247.898438 247.417969 247.207031 C 246.382812 246.515625 245.472656 245.691406 244.683594 244.730469 C 243.894531 243.769531 243.261719 242.714844 242.789062 241.5625 C 242.3125 240.414062 242.011719 239.222656 241.890625 237.984375 C 241.769531 236.746094 241.832031 235.519531 242.074219 234.296875 C 242.316406 233.078125 242.730469 231.921875 243.316406 230.824219 C 243.902344 229.726562 244.632812 228.738281 245.511719 227.859375 L 270.152344 203.207031 L 245.511719 178.570312 C 244.929688 177.988281 244.40625 177.351562 243.949219 176.664062 C 243.488281 175.976562 243.101562 175.253906 242.785156 174.492188 C 242.46875 173.726562 242.230469 172.941406 242.070312 172.132812 C 241.90625 171.320312 241.828125 170.503906 241.824219 169.675781 C 241.824219 168.851562 241.90625 168.03125 242.066406 167.222656 C 242.226562 166.414062 242.464844 165.625 242.78125 164.863281 C 243.097656 164.097656 243.484375 163.375 243.941406 162.6875 C 244.402344 162 244.921875 161.363281 245.503906 160.78125 C 246.089844 160.195312 246.722656 159.675781 247.410156 159.214844 C 248.097656 158.757812 248.820312 158.367188 249.585938 158.050781 C 250.347656 157.734375 251.132812 157.496094 251.941406 157.335938 C 252.753906 157.175781 253.570312 157.09375 254.394531 157.09375 C 255.222656 157.09375 256.039062 157.171875 256.847656 157.332031 C 257.660156 157.496094 258.445312 157.734375 259.207031 158.050781 C 259.972656 158.363281 260.695312 158.75 261.382812 159.210938 C 262.070312 159.667969 262.703125 160.191406 263.289062 160.773438 L 296.816406 194.316406 C 297.402344 194.902344 297.925781 195.535156 298.382812 196.222656 C 298.84375 196.910156 299.230469 197.636719 299.546875 198.398438 C 299.863281 199.164062 300.101562 199.949219 300.261719 200.757812 C 300.425781 201.570312 300.503906 202.390625 300.503906 203.214844 C 300.503906 204.042969 300.425781 204.859375 300.261719 205.671875 C 300.101562 206.480469 299.863281 207.269531 299.546875 208.03125 C 299.230469 208.792969 298.84375 209.519531 298.382812 210.207031 C 297.925781 210.894531 297.402344 211.527344 296.816406 212.113281 L 263.289062 245.644531 C 262.109375 246.824219 260.75 247.730469 259.210938 248.371094 C 257.667969 249.007812 256.066406 249.328125 254.398438 249.328125 Z M 254.398438 249.328125 " fill-opacity="1" fill-rule="nonzero"/><path fill="#ffffff" d="M 170.582031 249.328125 C 170.050781 249.328125 169.519531 249.292969 168.992188 249.226562 C 168.460938 249.15625 167.9375 249.058594 167.421875 248.921875 C 166.90625 248.789062 166.402344 248.621094 165.90625 248.421875 C 165.410156 248.222656 164.929688 247.996094 164.464844 247.734375 C 164 247.472656 163.550781 247.1875 163.121094 246.867188 C 162.695312 246.550781 162.285156 246.210938 161.902344 245.839844 C 161.515625 245.472656 161.15625 245.078125 160.820312 244.664062 C 160.484375 244.25 160.175781 243.816406 159.894531 243.363281 C 159.613281 242.90625 159.363281 242.4375 159.144531 241.953125 C 158.921875 241.464844 158.734375 240.96875 158.578125 240.457031 C 158.421875 239.949219 158.296875 239.429688 158.203125 238.90625 C 158.113281 238.378906 158.054688 237.851562 158.03125 237.316406 C 158.007812 236.785156 158.015625 236.25 158.0625 235.71875 C 158.105469 235.1875 158.183594 234.660156 158.292969 234.140625 C 158.402344 233.617188 158.546875 233.105469 158.722656 232.601562 C 158.898438 232.097656 159.105469 231.605469 159.34375 231.128906 L 192.859375 164.042969 C 193.234375 163.304688 193.671875 162.609375 194.179688 161.957031 C 194.691406 161.304688 195.257812 160.707031 195.882812 160.167969 C 196.507812 159.625 197.179688 159.152344 197.902344 158.746094 C 198.621094 158.335938 199.371094 158.003906 200.15625 157.742188 C 200.941406 157.484375 201.746094 157.300781 202.566406 157.199219 C 203.386719 157.097656 204.210938 157.078125 205.035156 157.136719 C 205.859375 157.199219 206.667969 157.339844 207.464844 157.558594 C 208.261719 157.78125 209.03125 158.074219 209.769531 158.449219 C 210.507812 158.820312 211.203125 159.257812 211.855469 159.769531 C 212.507812 160.277344 213.105469 160.84375 213.644531 161.46875 C 214.1875 162.097656 214.660156 162.769531 215.066406 163.488281 C 215.476562 164.207031 215.808594 164.960938 216.070312 165.746094 C 216.328125 166.53125 216.511719 167.335938 216.613281 168.15625 C 216.714844 168.976562 216.734375 169.800781 216.671875 170.625 C 216.613281 171.449219 216.472656 172.261719 216.253906 173.058594 C 216.03125 173.855469 215.734375 174.625 215.363281 175.363281 L 181.847656 242.4375 C 181.320312 243.476562 180.664062 244.425781 179.871094 245.28125 C 179.082031 246.140625 178.1875 246.871094 177.191406 247.480469 C 176.199219 248.089844 175.140625 248.550781 174.015625 248.863281 C 172.894531 249.179688 171.75 249.332031 170.582031 249.328125 Z M 170.582031 249.328125 " fill-opacity="1" fill-rule="nonzero"/><g clip-path="url(#id1)"><path fill="#ffffff" d="M 350.789062 337.367188 L 23.921875 337.367188 C 23.09375 337.367188 22.277344 337.285156 21.46875 337.125 C 20.660156 336.964844 19.871094 336.726562 19.109375 336.410156 C 18.347656 336.09375 17.621094 335.707031 16.9375 335.246094 C 16.25 334.789062 15.613281 334.265625 15.03125 333.683594 C 14.449219 333.097656 13.925781 332.464844 13.46875 331.777344 C 13.007812 331.089844 12.621094 330.367188 12.304688 329.601562 C 11.988281 328.839844 11.75 328.054688 11.589844 327.242188 C 11.429688 326.433594 11.347656 325.617188 11.347656 324.789062 L 11.347656 22.945312 C 11.347656 22.117188 11.429688 21.300781 11.589844 20.488281 C 11.75 19.679688 11.988281 18.894531 12.304688 18.128906 C 12.621094 17.367188 13.007812 16.644531 13.46875 15.957031 C 13.925781 15.269531 14.449219 14.632812 15.03125 14.050781 C 15.613281 13.464844 16.25 12.945312 16.9375 12.488281 C 17.621094 12.027344 18.347656 11.640625 19.109375 11.324219 C 19.871094 11.007812 20.660156 10.769531 21.46875 10.609375 C 22.277344 10.449219 23.09375 10.367188 23.921875 10.367188 L 350.789062 10.367188 C 351.613281 10.367188 352.433594 10.449219 353.242188 10.609375 C 354.050781 10.769531 354.835938 11.007812 355.601562 11.324219 C 356.363281 11.640625 357.085938 12.027344 357.773438 12.488281 C 358.460938 12.945312 359.09375 13.464844 359.679688 14.050781 C 360.261719 14.632812 360.78125 15.269531 361.242188 15.957031 C 361.699219 16.644531 362.085938 17.367188 362.402344 18.128906 C 362.71875 18.894531 362.957031 19.679688 363.117188 20.488281 C 363.28125 21.300781 363.359375 22.117188 363.359375 22.945312 L 363.359375 324.789062 C 363.359375 325.617188 363.28125 326.433594 363.117188 327.242188 C 362.957031 328.054688 362.71875 328.839844 362.402344 329.601562 C 362.085938 330.367188 361.699219 331.089844 361.242188 331.777344 C 360.785156 332.464844 360.261719 333.097656 359.679688 333.683594 C 359.09375 334.265625 358.460938 334.789062 357.773438 335.246094 C 357.085938 335.707031 356.363281 336.09375 355.601562 336.410156 C 354.835938 336.726562 354.050781 336.964844 353.242188 337.125 C 352.433594 337.285156 351.613281 337.367188 350.789062 337.367188 Z M 36.492188 312.214844 L 338.21875 312.214844 L 338.21875 35.519531 L 36.492188 35.519531 Z M 36.492188 312.214844 " fill-opacity="1" fill-rule="nonzero"/></g><g clip-path="url(#id2)"><path fill="#ffffff" d="M 350.789062 110.980469 L 23.921875 110.980469 C 23.09375 110.980469 22.277344 110.902344 21.46875 110.742188 C 20.660156 110.578125 19.871094 110.339844 19.109375 110.023438 C 18.347656 109.707031 17.621094 109.320312 16.9375 108.863281 C 16.25 108.402344 15.613281 107.882812 15.03125 107.296875 C 14.449219 106.714844 13.925781 106.078125 13.46875 105.394531 C 13.007812 104.707031 12.621094 103.980469 12.304688 103.21875 C 11.988281 102.457031 11.75 101.667969 11.589844 100.859375 C 11.429688 100.050781 11.347656 99.230469 11.347656 98.40625 C 11.347656 97.578125 11.429688 96.761719 11.589844 95.953125 C 11.75 95.140625 11.988281 94.355469 12.304688 93.59375 C 12.621094 92.828125 13.007812 92.105469 13.46875 91.417969 C 13.925781 90.730469 14.449219 90.097656 15.03125 89.511719 C 15.613281 88.929688 16.25 88.40625 16.9375 87.949219 C 17.621094 87.488281 18.347656 87.101562 19.109375 86.785156 C 19.871094 86.46875 20.660156 86.230469 21.46875 86.070312 C 22.277344 85.910156 23.09375 85.828125 23.921875 85.828125 L 350.789062 85.828125 C 351.613281 85.828125 352.433594 85.910156 353.242188 86.070312 C 354.050781 86.230469 354.835938 86.46875 355.601562 86.785156 C 356.363281 87.101562 357.085938 87.488281 357.773438 87.949219 C 358.460938 88.40625 359.09375 88.929688 359.679688 89.511719 C 360.261719 90.097656 360.78125 90.730469 361.242188 91.417969 C 361.699219 92.105469 362.085938 92.828125 362.402344 93.59375 C 362.71875 94.355469 362.957031 95.140625 363.117188 95.953125 C 363.28125 96.761719 363.359375 97.578125 363.359375 98.40625 C 363.359375 99.230469 363.28125 100.050781 363.117188 100.859375 C 362.957031 101.667969 362.71875 102.457031 362.402344 103.21875 C 362.085938 103.980469 361.699219 104.707031 361.242188 105.394531 C 360.785156 106.078125 360.261719 106.714844 359.679688 107.296875 C 359.09375 107.882812 358.460938 108.402344 357.773438 108.863281 C 357.085938 109.320312 356.363281 109.707031 355.601562 110.023438 C 354.835938 110.339844 354.050781 110.578125 353.242188 110.742188 C 352.433594 110.902344 351.613281 110.980469 350.789062 110.980469 Z M 350.789062 110.980469 " fill-opacity="1" fill-rule="nonzero"/></g><path fill="#ffffff" d="M 237.640625 73.25 C 236.796875 73.222656 235.960938 73.140625 235.128906 73 C 234.335938 72.863281 233.582031 72.609375 232.863281 72.246094 C 232.058594 71.96875 231.296875 71.589844 230.589844 71.113281 L 228.714844 69.605469 C 228.136719 69.015625 227.621094 68.375 227.167969 67.683594 C 226.710938 66.992188 226.328125 66.261719 226.015625 65.496094 C 225.703125 64.730469 225.46875 63.945312 225.308594 63.132812 C 225.148438 62.320312 225.070312 61.5 225.070312 60.675781 C 225.070312 59.847656 225.148438 59.027344 225.308594 58.21875 C 225.46875 57.40625 225.703125 56.617188 226.015625 55.851562 C 226.328125 55.085938 226.710938 54.359375 227.167969 53.667969 C 227.621094 52.976562 228.136719 52.335938 228.714844 51.746094 C 229.609375 50.882812 230.601562 50.167969 231.703125 49.597656 C 232.800781 49.027344 233.960938 48.625 235.175781 48.390625 C 236.390625 48.15625 237.617188 48.097656 238.847656 48.21875 C 240.082031 48.339844 241.273438 48.636719 242.417969 49.105469 C 243.195312 49.359375 243.910156 49.734375 244.554688 50.234375 C 245.296875 50.738281 245.941406 51.242188 246.566406 51.746094 C 247.148438 52.335938 247.664062 52.976562 248.117188 53.667969 C 248.570312 54.359375 248.957031 55.085938 249.269531 55.851562 C 249.582031 56.617188 249.816406 57.40625 249.976562 58.21875 C 250.136719 59.027344 250.214844 59.847656 250.214844 60.675781 C 250.214844 61.5 250.136719 62.320312 249.976562 63.132812 C 249.816406 63.945312 249.582031 64.730469 249.269531 65.496094 C 248.957031 66.261719 248.570312 66.992188 248.117188 67.683594 C 247.664062 68.375 247.148438 69.015625 246.566406 69.605469 C 245.335938 70.71875 243.953125 71.601562 242.417969 72.246094 C 240.894531 72.894531 239.300781 73.230469 237.640625 73.25 Z M 237.640625 73.25 " fill-opacity="1" fill-rule="nonzero"/><path fill="#ffffff" d="M 275.359375 73.25 C 274.515625 73.222656 273.675781 73.140625 272.84375 73 C 272.050781 72.863281 271.296875 72.609375 270.582031 72.246094 C 269.773438 71.96875 269.015625 71.589844 268.304688 71.113281 C 267.652344 70.644531 267.027344 70.140625 266.429688 69.605469 C 265.253906 68.410156 264.375 67.027344 263.792969 65.453125 C 263.121094 63.929688 262.785156 62.339844 262.785156 60.675781 C 262.785156 59.011719 263.121094 57.417969 263.792969 55.894531 C 264.433594 54.359375 265.3125 52.976562 266.429688 51.746094 C 267.3125 50.859375 268.300781 50.117188 269.398438 49.527344 C 270.5 48.933594 271.660156 48.515625 272.886719 48.269531 C 274.109375 48.023438 275.34375 47.960938 276.585938 48.085938 C 277.828125 48.207031 279.027344 48.507812 280.179688 48.984375 C 281.332031 49.464844 282.390625 50.101562 283.355469 50.894531 C 284.316406 51.691406 285.144531 52.609375 285.835938 53.648438 C 286.523438 54.691406 287.046875 55.808594 287.40625 57.003906 C 287.761719 58.203125 287.9375 59.425781 287.929688 60.675781 C 287.90625 62.339844 287.578125 63.941406 286.949219 65.484375 C 286.320312 67.023438 285.429688 68.398438 284.285156 69.605469 C 283.683594 70.140625 283.054688 70.644531 282.398438 71.113281 C 281.691406 71.589844 280.9375 71.964844 280.136719 72.246094 C 279.417969 72.609375 278.664062 72.859375 277.871094 73 C 277.039062 73.144531 276.203125 73.230469 275.359375 73.25 Z M 275.359375 73.25 " fill-opacity="1" fill-rule="nonzero"/><path fill="#ffffff" d="M 313.074219 73.25 C 312.246094 73.261719 311.425781 73.1875 310.613281 73.03125 C 309.796875 72.875 309.007812 72.640625 308.242188 72.328125 C 307.476562 72.015625 306.746094 71.628906 306.058594 71.171875 C 305.367188 70.710938 304.730469 70.191406 304.144531 69.605469 C 303.5625 69.019531 303.039062 68.382812 302.582031 67.691406 C 302.121094 67.003906 301.738281 66.273438 301.425781 65.507812 C 301.109375 64.742188 300.878906 63.949219 300.722656 63.136719 C 300.566406 62.324219 300.492188 61.503906 300.5 60.675781 C 300.457031 59 300.792969 57.410156 301.507812 55.894531 C 302.148438 54.359375 303.03125 52.976562 304.148438 51.746094 C 304.75 51.1875 305.398438 50.691406 306.09375 50.257812 C 306.789062 49.824219 307.519531 49.457031 308.28125 49.160156 C 309.042969 48.859375 309.828125 48.632812 310.636719 48.484375 C 311.441406 48.332031 312.253906 48.253906 313.074219 48.253906 C 313.894531 48.253906 314.707031 48.332031 315.511719 48.484375 C 316.316406 48.632812 317.101562 48.859375 317.863281 49.160156 C 318.628906 49.457031 319.359375 49.824219 320.054688 50.257812 C 320.746094 50.691406 321.398438 51.1875 322 51.746094 C 323.117188 52.976562 323.996094 54.359375 324.640625 55.894531 C 325.289062 57.421875 325.625 59.015625 325.644531 60.675781 C 325.652344 61.503906 325.578125 62.324219 325.425781 63.136719 C 325.269531 63.949219 325.035156 64.742188 324.722656 65.507812 C 324.410156 66.273438 324.023438 67.003906 323.566406 67.691406 C 323.109375 68.382812 322.585938 69.019531 322 69.605469 C 321.414062 70.191406 320.777344 70.710938 320.089844 71.171875 C 319.398438 71.628906 318.671875 72.015625 317.902344 72.328125 C 317.136719 72.640625 316.347656 72.875 315.535156 73.03125 C 314.722656 73.1875 313.902344 73.261719 313.074219 73.25 Z M 313.074219 73.25 " fill-opacity="1" fill-rule="nonzero"/><g fill="#ffffff" fill-opacity="1"><g transform="translate(69.196408, 361.475748)"><g><path d="M 8.6875 -4.734375 C 8.6875 -3.203125 8.269531 -2.03125 7.4375 -1.21875 C 6.601562 -0.40625 5.40625 0 3.84375 0 L 1.28125 0 L 1.28125 -9.28125 L 4.125 -9.28125 C 5.5625 -9.28125 6.679688 -8.878906 7.484375 -8.078125 C 8.285156 -7.273438 8.6875 -6.160156 8.6875 -4.734375 Z M 7.546875 -4.6875 C 7.546875 -5.894531 7.238281 -6.804688 6.625 -7.421875 C 6.019531 -8.035156 5.117188 -8.34375 3.921875 -8.34375 L 2.359375 -8.34375 L 2.359375 -0.9375 L 3.671875 -0.9375 C 4.953125 -0.9375 5.914062 -1.25 6.5625 -1.875 C 7.21875 -2.507812 7.546875 -3.445312 7.546875 -4.6875 Z M 7.546875 -4.6875 "/></g></g></g><g fill="#ffffff" fill-opacity="1"><g transform="translate(89.070775, 361.475748)"><g><path d="M 6.453125 0 L 1.28125 0 L 1.28125 -9.28125 L 6.453125 -9.28125 L 6.453125 -8.328125 L 2.359375 -8.328125 L 2.359375 -5.328125 L 6.203125 -5.328125 L 6.203125 -4.375 L 2.359375 -4.375 L 2.359375 -0.96875 L 6.453125 -0.96875 Z M 6.453125 0 "/></g></g></g><g fill="#ffffff" fill-opacity="1"><g transform="translate(106.698746, 361.475748)"><g><path d="M 6.578125 -9.28125 L 7.734375 -9.28125 L 4.390625 0 L 3.328125 0 L 0 -9.28125 L 1.140625 -9.28125 L 3.28125 -3.28125 C 3.519531 -2.582031 3.710938 -1.910156 3.859375 -1.265625 C 4.015625 -1.953125 4.210938 -2.632812 4.453125 -3.3125 Z M 6.578125 -9.28125 "/></g></g></g><g fill="#ffffff" fill-opacity="1"><g transform="translate(124.834374, 361.475748)"><g/></g></g><g fill="#ffffff" fill-opacity="1"><g transform="translate(138.610474, 361.475748)"><g><path d="M 6.453125 0 L 1.28125 0 L 1.28125 -9.28125 L 6.453125 -9.28125 L 6.453125 -8.328125 L 2.359375 -8.328125 L 2.359375 -5.328125 L 6.203125 -5.328125 L 6.203125 -4.375 L 2.359375 -4.375 L 2.359375 -0.96875 L 6.453125 -0.96875 Z M 6.453125 0 "/></g></g></g><g fill="#ffffff" fill-opacity="1"><g transform="translate(156.238448, 361.475748)"><g><path d="M 8.6875 -4.734375 C 8.6875 -3.203125 8.269531 -2.03125 7.4375 -1.21875 C 6.601562 -0.40625 5.40625 0 3.84375 0 L 1.28125 0 L 1.28125 -9.28125 L 4.125 -9.28125 C 5.5625 -9.28125 6.679688 -8.878906 7.484375 -8.078125 C 8.285156 -7.273438 8.6875 -6.160156 8.6875 -4.734375 Z M 7.546875 -4.6875 C 7.546875 -5.894531 7.238281 -6.804688 6.625 -7.421875 C 6.019531 -8.035156 5.117188 -8.34375 3.921875 -8.34375 L 2.359375 -8.34375 L 2.359375 -0.9375 L 3.671875 -0.9375 C 4.953125 -0.9375 5.914062 -1.25 6.5625 -1.875 C 7.21875 -2.507812 7.546875 -3.445312 7.546875 -4.6875 Z M 7.546875 -4.6875 "/></g></g></g><g fill="#ffffff" fill-opacity="1"><g transform="translate(176.112818, 361.475748)"><g><path d="M 8.28125 -9.28125 L 8.28125 -3.28125 C 8.28125 -2.21875 7.957031 -1.382812 7.3125 -0.78125 C 6.675781 -0.175781 5.800781 0.125 4.6875 0.125 C 3.570312 0.125 2.707031 -0.175781 2.09375 -0.78125 C 1.488281 -1.394531 1.1875 -2.234375 1.1875 -3.296875 L 1.1875 -9.28125 L 2.265625 -9.28125 L 2.265625 -3.21875 C 2.265625 -2.445312 2.472656 -1.851562 2.890625 -1.4375 C 3.316406 -1.019531 3.941406 -0.8125 4.765625 -0.8125 C 5.546875 -0.8125 6.144531 -1.019531 6.5625 -1.4375 C 6.988281 -1.851562 7.203125 -2.453125 7.203125 -3.234375 L 7.203125 -9.28125 Z M 8.28125 -9.28125 "/></g></g></g><g fill="#ffffff" fill-opacity="1"><g transform="translate(195.974496, 361.475748)"><g><path d="M 5.25 -8.453125 C 4.226562 -8.453125 3.421875 -8.109375 2.828125 -7.421875 C 2.242188 -6.742188 1.953125 -5.816406 1.953125 -4.640625 C 1.953125 -3.421875 2.234375 -2.476562 2.796875 -1.8125 C 3.367188 -1.15625 4.179688 -0.828125 5.234375 -0.828125 C 5.878906 -0.828125 6.617188 -0.945312 7.453125 -1.1875 L 7.453125 -0.234375 C 6.804688 0.00390625 6.015625 0.125 5.078125 0.125 C 3.703125 0.125 2.644531 -0.285156 1.90625 -1.109375 C 1.164062 -1.941406 0.796875 -3.125 0.796875 -4.65625 C 0.796875 -5.613281 0.972656 -6.453125 1.328125 -7.171875 C 1.679688 -7.890625 2.195312 -8.441406 2.875 -8.828125 C 3.550781 -9.210938 4.347656 -9.40625 5.265625 -9.40625 C 6.234375 -9.40625 7.082031 -9.226562 7.8125 -8.875 L 7.359375 -7.953125 C 6.648438 -8.285156 5.945312 -8.453125 5.25 -8.453125 Z M 5.25 -8.453125 "/></g></g></g><g fill="#ffffff" fill-opacity="1"><g transform="translate(214.573363, 361.475748)"><g><path d="M 7.109375 0 L 5.953125 -2.953125 L 2.234375 -2.953125 L 1.09375 0 L 0 0 L 3.671875 -9.3125 L 4.578125 -9.3125 L 8.234375 0 Z M 5.625 -3.921875 L 4.53125 -6.796875 C 4.394531 -7.160156 4.253906 -7.609375 4.109375 -8.140625 C 4.015625 -7.734375 3.878906 -7.285156 3.703125 -6.796875 L 2.609375 -3.921875 Z M 5.625 -3.921875 "/></g></g></g><g fill="#ffffff" fill-opacity="1"><g transform="translate(233.197614, 361.475748)"><g><path d="M 4.125 0 L 3.046875 0 L 3.046875 -8.328125 L 0.109375 -8.328125 L 0.109375 -9.28125 L 7.078125 -9.28125 L 7.078125 -8.328125 L 4.125 -8.328125 Z M 4.125 0 "/></g></g></g><g fill="#ffffff" fill-opacity="1"><g transform="translate(250.787514, 361.475748)"><g><path d="M 1.28125 0 L 1.28125 -9.28125 L 2.359375 -9.28125 L 2.359375 0 Z M 1.28125 0 "/></g></g></g><g fill="#ffffff" fill-opacity="1"><g transform="translate(264.811103, 361.475748)"><g><path d="M 9.328125 -4.65625 C 9.328125 -3.164062 8.953125 -1.992188 8.203125 -1.140625 C 7.453125 -0.296875 6.410156 0.125 5.078125 0.125 C 3.703125 0.125 2.644531 -0.289062 1.90625 -1.125 C 1.164062 -1.957031 0.796875 -3.140625 0.796875 -4.671875 C 0.796875 -6.179688 1.164062 -7.347656 1.90625 -8.171875 C 2.65625 -9.003906 3.710938 -9.421875 5.078125 -9.421875 C 6.410156 -9.421875 7.453125 -9 8.203125 -8.15625 C 8.953125 -7.3125 9.328125 -6.144531 9.328125 -4.65625 Z M 1.9375 -4.65625 C 1.9375 -3.394531 2.203125 -2.4375 2.734375 -1.78125 C 3.273438 -1.132812 4.054688 -0.8125 5.078125 -0.8125 C 6.097656 -0.8125 6.867188 -1.132812 7.390625 -1.78125 C 7.921875 -2.4375 8.1875 -3.394531 8.1875 -4.65625 C 8.1875 -5.90625 7.925781 -6.851562 7.40625 -7.5 C 6.882812 -8.144531 6.109375 -8.46875 5.078125 -8.46875 C 4.054688 -8.46875 3.273438 -8.140625 2.734375 -7.484375 C 2.203125 -6.835938 1.9375 -5.894531 1.9375 -4.65625 Z M 1.9375 -4.65625 "/></g></g></g><g fill="#ffffff" fill-opacity="1"><g transform="translate(285.332739, 361.475748)"><g><path d="M 8.53125 0 L 7.296875 0 L 2.21875 -7.78125 L 2.171875 -7.78125 C 2.234375 -6.875 2.265625 -6.039062 2.265625 -5.28125 L 2.265625 0 L 1.28125 0 L 1.28125 -9.28125 L 2.5 -9.28125 L 7.546875 -1.53125 L 7.609375 -1.53125 C 7.597656 -1.632812 7.578125 -2 7.546875 -2.625 C 7.515625 -3.25 7.503906 -3.691406 7.515625 -3.953125 L 7.515625 -9.28125 L 8.53125 -9.28125 Z M 8.53125 0 "/></g></g></g></svg>